<svg height="1982" width="720" xmlns="http://www.w3.org/2000/svg">
<rect height="1982" fill="#555" width="720"></rect>
<text fill="#7f7" font-family="Courier New" font-size="12" xml:space="preserve">
<tspan x="10" y="26"></tspan>
<tspan x="10" y="42">&gt; npmdoc-tsify@0.0.1 test /home/travis/build/npmdoc/node-npmdoc-tsify</tspan>
<tspan x="10" y="58">&gt; (set -e; export PORT=$(utility2 shServerPortRandom); utility2 test test.js)</tspan>
<tspan x="10" y="74"></tspan>
<tspan x="10" y="90"></tspan>
<tspan x="10" y="106">[MODE_BUILD=npmTest] - 2017-04-07T13:55:03Z - npm-testing /home/travis/build/npmdoc/node-npmdoc-\</tspan>
<tspan x="10" y="122">tsify</tspan>
<tspan x="10" y="138"></tspan>
<tspan x="10" y="154"></tspan>
<tspan x="10" y="170">covering $ /home/travis/.nvm/versions/node/v6.10.2/bin/node /home/travis/build/npmdoc/node-npmdo\</tspan>
<tspan x="10" y="186">c-tsify/test.js</tspan>
<tspan x="10" y="202">merging file:///home/travis/build/npmdoc/node-npmdoc-tsify/tmp/build/test-report.json to test-re\</tspan>
<tspan x="10" y="218">port</tspan>
<tspan x="10" y="234">&gt; server listening on http-port 48785</tspan>
<tspan x="10" y="250">created apidoc file:///home/travis/build/npmdoc/node-npmdoc-tsify/tmp/build/apidoc.html</tspan>
<tspan x="10" y="266"></tspan>
<tspan x="10" y="282"></tspan>
<tspan x="10" y="298">browserTest - created electron entry-page /home/travis/build/npmdoc/node-npmdoc-tsify/tmp/electr\</tspan>
<tspan x="10" y="314">on.15b48b26c7c0.d8d2d683d178c.html</tspan>
<tspan x="10" y="330"></tspan>
<tspan x="10" y="346">[node test-case 1 of 6 passed] - testCase_buildLib_default</tspan>
<tspan x="10" y="362">[node test-case 2 of 6 passed] - testCase_buildReadme_default</tspan>
<tspan x="10" y="378">[node test-case 3 of 6 passed] - testCase_buildTest_default</tspan>
<tspan x="10" y="394"></tspan>
<tspan x="10" y="410">browserTest - created electron entry-page /home/travis/build/npmdoc/node-npmdoc-tsify/tmp/electr\</tspan>
<tspan x="10" y="426">on.15b48b26cb00.e9503abbed638.html</tspan>
<tspan x="10" y="442"></tspan>
<tspan x="10" y="458">Xlib:  extension "RANDR" missing on display ":99.0".</tspan>
<tspan x="10" y="474">Xlib:  extension "RANDR" missing on display ":99.0".</tspan>
<tspan x="10" y="490">&gt; server listening on http-port 41391</tspan>
<tspan x="10" y="506">merging file:///home/travis/build/npmdoc/node-npmdoc-tsify/tmp/build/test-report.json to test-re\</tspan>
<tspan x="10" y="522">port</tspan>
<tspan x="10" y="538">Xlib:  extension "RANDR" missing on display ":99.0".</tspan>
<tspan x="10" y="554">merging file:///home/travis/build/npmdoc/node-npmdoc-tsify/tmp/build/test-report.json to test-re\</tspan>
<tspan x="10" y="570">port</tspan>
<tspan x="10" y="586">[5898:0407/135505:WARNING:audio_manager.cc(314)] Multiple instances of AudioManager detected</tspan>
<tspan x="10" y="602">[5898:0407/135505:WARNING:audio_manager.cc(275)] Multiple instances of AudioManager detected</tspan>
<tspan x="10" y="618">Xlib:  extension "RANDR" missing on display ":99.0".</tspan>
<tspan x="10" y="634">[5942:0407/135505:ERROR:sandbox_linux.cc(343)] InitializeSandbox() called with multiple threads \</tspan>
<tspan x="10" y="650">in process gpu-process. </tspan>
<tspan x="10" y="666">[5902:0407/135505:WARNING:audio_manager.cc(314)] Multiple instances of AudioManager detected</tspan>
<tspan x="10" y="682">[5902:0407/135505:WARNING:audio_manager.cc(275)] Multiple instances of AudioManager detected</tspan>
<tspan x="10" y="698">[5963:0407/135505:ERROR:sandbox_linux.cc(343)] InitializeSandbox() called with multiple threads \</tspan>
<tspan x="10" y="714">in process gpu-process. </tspan>
<tspan x="10" y="730"></tspan>
<tspan x="10" y="746">browserTest - opened url /home/travis/build/npmdoc/node-npmdoc-tsify/tmp/build/apidoc.html</tspan>
<tspan x="10" y="762"></tspan>
<tspan x="10" y="778"></tspan>
<tspan x="10" y="794">browserTest - opened url http://127.0.0.1:48785?modeTest=1</tspan>
<tspan x="10" y="810"></tspan>
<tspan x="10" y="826">[5902:0407/135507:INFO:CONSOLE(250)] "----------|-----------|-----------|-----------|-----------\</tspan>
<tspan x="10" y="842">|</tspan>
<tspan x="10" y="858">File      |   % Stmts |% Branches |   % Funcs |   % Lines |</tspan>
<tspan x="10" y="874">----------|-----------|-----------|-----------|-----------|</tspan>
<tspan x="10" y="890">----------|-----------|-----------|-----------|-----------|</tspan>
<tspan x="10" y="906">All files |       100 |       100 |       100 |       100 |</tspan>
<tspan x="10" y="922">----------|-----------|-----------|-----------|-----------|</tspan>
<tspan x="10" y="938">", source: file:///home/travis/build/npmdoc/node-npmdoc-tsify/tmp/electron.15b48b26cb00.e9503abb\</tspan>
<tspan x="10" y="954">ed638.html (250)</tspan>
<tspan x="10" y="970">[5902:0407/135507:INFO:CONSOLE(250)] "created coverage file:///tmp/build/coverage.html/index.htm\</tspan>
<tspan x="10" y="986">l", source: file:///home/travis/build/npmdoc/node-npmdoc-tsify/tmp/electron.15b48b26cb00.e9503ab\</tspan>
<tspan x="10" y="1002">bed638.html (250)</tspan>
<tspan x="10" y="1018">[node test-case 4 of 6 passed] - testCase_buildApp_default</tspan>
<tspan x="10" y="1034"></tspan>
<tspan x="10" y="1050">browserTest - created screenCapture file:///home/travis/build/npmdoc/node-npmdoc-tsify/tmp/build\</tspan>
<tspan x="10" y="1066">/screenCapture.npmTest.browser._2Fhome_2Ftravis_2Fbuild_2Fnpmdoc_2Fnode-npmdoc-tsify_2Ftmp_2Fbui\</tspan>
<tspan x="10" y="1082">ld_2Fapidoc.html.png</tspan>
<tspan x="10" y="1098"></tspan>
<tspan x="10" y="1114">browserTest - created screenCapture file:///home/travis/build/npmdoc/node-npmdoc-tsify/tmp/build\</tspan>
<tspan x="10" y="1130">/screenCapture.npmTest.browser._2Fhome_2Ftravis_2Fbuild_2Fnpmdoc_2Fnode-npmdoc-tsify_2Ftmp_2Fbui\</tspan>
<tspan x="10" y="1146">ld_2Fapidoc.html.html</tspan>
<tspan x="10" y="1162"></tspan>
<tspan x="10" y="1178">browserTest - exit-code 0 - /home/travis/build/npmdoc/node-npmdoc-tsify/tmp/build/apidoc.html</tspan>
<tspan x="10" y="1194"></tspan>
<tspan x="10" y="1210">[node test-case 5 of 6 passed] - testCase_buildApidoc_default</tspan>
<tspan x="10" y="1226"></tspan>
<tspan x="10" y="1242">browserTest - created screenCapture file:///home/travis/build/npmdoc/node-npmdoc-tsify/tmp/build\</tspan>
<tspan x="10" y="1258">/screenCapture.npmTest.browser..png</tspan>
<tspan x="10" y="1274"></tspan>
<tspan x="10" y="1290">browserTest - created screenCapture file:///home/travis/build/npmdoc/node-npmdoc-tsify/tmp/build\</tspan>
<tspan x="10" y="1306">/screenCapture.npmTest.browser..html</tspan>
<tspan x="10" y="1322"></tspan>
<tspan x="10" y="1338">browserTest - exit-code 0 - http://127.0.0.1:48785?modeTest=1</tspan>
<tspan x="10" y="1354"></tspan>
<tspan x="10" y="1370"></tspan>
<tspan x="10" y="1386">browserTest - merged coverage from /home/travis/build/npmdoc/node-npmdoc-tsify/tmp/coverage.npmT\</tspan>
<tspan x="10" y="1402">est.browser.%2F.json</tspan>
<tspan x="10" y="1418"></tspan>
<tspan x="10" y="1434"></tspan>
<tspan x="10" y="1450">browserTest - merging test-report from /home/travis/build/npmdoc/node-npmdoc-tsify/tmp/test-repo\</tspan>
<tspan x="10" y="1466">rt.npmTest.browser.%2F.json</tspan>
<tspan x="10" y="1482"></tspan>
<tspan x="10" y="1498">[node test-case 6 of 6 passed] - testCase_webpage_default</tspan>
<tspan x="10" y="1514">--------------------------|-----------|-----------|-----------|-----------|</tspan>
<tspan x="10" y="1530">File                      |   % Stmts |% Branches |   % Funcs |   % Lines |</tspan>
<tspan x="10" y="1546">--------------------------|-----------|-----------|-----------|-----------|</tspan>
<tspan x="10" y="1562">   node-npmdoc-tsify/     |       100 |       100 |       100 |       100 |</tspan>
<tspan x="10" y="1578">      example.js          |       100 |       100 |       100 |       100 |</tspan>
<tspan x="10" y="1594">      lib.npmdoc_tsify.js |       100 |       100 |       100 |       100 |</tspan>
<tspan x="10" y="1610">      test.js             |       100 |       100 |       100 |       100 |</tspan>
<tspan x="10" y="1626">--------------------------|-----------|-----------|-----------|-----------|</tspan>
<tspan x="10" y="1642">All files                 |       100 |       100 |       100 |       100 |</tspan>
<tspan x="10" y="1658">--------------------------|-----------|-----------|-----------|-----------|</tspan>
<tspan x="10" y="1674"></tspan>
<tspan x="10" y="1690">created coverage file:///home/travis/build/npmdoc/node-npmdoc-tsify/tmp/build/coverage.html/inde\</tspan>
<tspan x="10" y="1706">x.html</tspan>
<tspan x="10" y="1722">merging file:///home/travis/build/npmdoc/node-npmdoc-tsify/tmp/build/test-report.json to test-re\</tspan>
<tspan x="10" y="1738">port</tspan>
<tspan x="10" y="1754"></tspan>
<tspan x="10" y="1770">-------------------------------------------------------</tspan>
<tspan x="10" y="1786">| test-report - buildNpmdoc - node - linux v6.10.2 - 2017-04-07T13:54:25.799Z</tspan>
<tspan x="10" y="1802">|   53397 ms            0 failed        6 passed      |</tspan>
<tspan x="10" y="1818">-------------------------------------------------------</tspan>
<tspan x="10" y="1834"></tspan>
<tspan x="10" y="1850">created test-report file:///home/travis/build/npmdoc/node-npmdoc-tsify/tmp/build/test-report.htm\</tspan>
<tspan x="10" y="1866">l</tspan>
<tspan x="10" y="1882"></tspan>
<tspan x="10" y="1898"></tspan>
<tspan x="10" y="1914">npmTest - 0 failed tests</tspan>
<tspan x="10" y="1930"></tspan>
<tspan x="10" y="1946"></tspan>
<tspan x="10" y="1962">[MODE_BUILD=npmTest] - 2017-04-07T13:55:22Z - EXIT_CODE - 0</tspan>
</text>
</svg>
